<svg width="18" height="18" viewBox="0 0 18 18" fill="none" xmlns="http://www.w3.org/2000/svg">
<mask id="mask0_25_25" style="mask-type:luminance" maskUnits="userSpaceOnUse" x="0" y="0" width="19" height="19">
<path d="M0 -3.05176e-05H18.0015V18.0015H0V-3.05176e-05Z" fill="white"/>
</mask>
<g mask="url(#mask0_25_25)">
<path d="M16.8368 12.3678V16.683C16.8368 17.2655 16.3645 17.7378 15.782 17.7378H2.21945C1.63693 17.7378 1.16467 17.2655 1.16467 16.683V15.2157" stroke="white" stroke-width="0.8" stroke-miterlimit="10" stroke-linecap="round" stroke-linejoin="round"/>
<path d="M12.9124 16.6831H2.22108C1.63758 16.6831 1.16455 16.2101 1.16455 15.6266V2.52535C1.16455 1.94185 1.63758 1.46882 2.22108 1.46882H15.7801C16.3637 1.46882 16.8367 1.94185 16.8367 2.52535V12.7589C16.8367 13.0391 16.7254 13.3078 16.5272 13.5059L13.6595 16.3736C13.5614 16.4717 13.4449 16.5496 13.3168 16.6027C13.1886 16.6558 13.0512 16.6831 12.9124 16.6831Z" stroke="white" stroke-width="0.8" stroke-miterlimit="10" stroke-linecap="round" stroke-linejoin="round"/>
<path d="M12.4795 16.6831C12.9576 16.6831 13.3452 16.2955 13.3452 15.8174V14.0572C13.3452 13.5791 13.7327 13.1916 14.2108 13.1916H15.971C16.4491 13.1916 16.8367 12.804 16.8367 12.3259" stroke="white" stroke-width="0.8" stroke-miterlimit="10" stroke-linecap="round" stroke-linejoin="round"/>
<path d="M4.28226 5.2373H1.16455" stroke="white" stroke-width="0.8" stroke-miterlimit="10" stroke-linecap="round" stroke-linejoin="round"/>
<path d="M16.8368 5.2373H5.33716" stroke="white" stroke-width="0.8" stroke-miterlimit="10" stroke-linecap="round" stroke-linejoin="round"/>
<path d="M4.15049 3.0459C3.85325 3.0459 3.6123 2.80495 3.6123 2.50772V0.801829C3.6123 0.504594 3.85325 0.263648 4.15049 0.263648H4.27154C4.56877 0.263648 4.80972 0.504594 4.80972 0.801829V1.46869" stroke="white" stroke-width="0.8" stroke-miterlimit="10" stroke-linecap="round" stroke-linejoin="round"/>
<path d="M13.7298 3.0459C13.4326 3.0459 13.1917 2.80495 13.1917 2.50772V0.801829C13.1917 0.504594 13.4326 0.263648 13.7298 0.263648H13.8509C14.1481 0.263648 14.3891 0.504594 14.3891 0.801829V1.46869" stroke="white" stroke-width="0.8" stroke-miterlimit="10" stroke-linecap="round" stroke-linejoin="round"/>
<path d="M4.25352 8.57715H2.99785C2.93124 8.57715 2.86736 8.55069 2.82026 8.50359C2.77316 8.45649 2.7467 8.39261 2.7467 8.32601V7.07033C2.7467 7.00373 2.77316 6.93985 2.82026 6.89275C2.86736 6.84565 2.93124 6.81919 2.99785 6.81919H4.25352C4.32013 6.81919 4.38401 6.84565 4.4311 6.89275C4.4782 6.93985 4.50466 7.00373 4.50466 7.07033V8.32601C4.50466 8.39261 4.4782 8.45649 4.4311 8.50359C4.38401 8.55069 4.32013 8.57715 4.25352 8.57715Z" stroke="white" stroke-width="0.8" stroke-miterlimit="10" stroke-linecap="round" stroke-linejoin="round"/>
<path d="M7.83689 8.57715H6.58122C6.51461 8.57715 6.45073 8.55069 6.40364 8.50359C6.35654 8.45649 6.33008 8.39261 6.33008 8.32601V7.07033C6.33008 7.00373 6.35654 6.93985 6.40364 6.89275C6.45073 6.84565 6.51461 6.81919 6.58122 6.81919H7.83689C7.9035 6.81919 7.96738 6.84565 8.01448 6.89275C8.06158 6.93985 8.08804 7.00373 8.08804 7.07033V8.32601C8.08804 8.39261 8.06158 8.45649 8.01448 8.50359C7.96738 8.55069 7.9035 8.57715 7.83689 8.57715Z" stroke="white" stroke-width="0.8" stroke-miterlimit="10" stroke-linecap="round" stroke-linejoin="round"/>
<path d="M11.4201 8.57715H10.1645C10.0979 8.57715 10.034 8.55069 9.98689 8.50359C9.93979 8.45649 9.91333 8.39261 9.91333 8.32601V7.07033C9.91333 7.00373 9.93979 6.93985 9.98689 6.89275C10.034 6.84565 10.0979 6.81919 10.1645 6.81919H11.4201C11.4868 6.81919 11.5506 6.84565 11.5977 6.89275C11.6448 6.93985 11.6713 7.00373 11.6713 7.07033V8.32601C11.6713 8.39261 11.6448 8.45649 11.5977 8.50359C11.5506 8.55069 11.4868 8.57715 11.4201 8.57715Z" stroke="white" stroke-width="0.8" stroke-miterlimit="10" stroke-linecap="round" stroke-linejoin="round"/>
<path d="M15.0034 8.57715H13.7477C13.6811 8.57715 13.6172 8.55069 13.5701 8.50359C13.523 8.45649 13.4966 8.39261 13.4966 8.32601V7.07033C13.4966 7.00373 13.523 6.93985 13.5701 6.89275C13.6172 6.84565 13.6811 6.81919 13.7477 6.81919H15.0034C15.07 6.81919 15.1339 6.84565 15.181 6.89275C15.2281 6.93985 15.2545 7.00373 15.2545 7.07033V8.32601C15.2545 8.39261 15.2281 8.45649 15.181 8.50359C15.1339 8.55069 15.07 8.57715 15.0034 8.57715Z" stroke="white" stroke-width="0.8" stroke-miterlimit="10" stroke-linecap="round" stroke-linejoin="round"/>
<path d="M4.25352 11.8394H2.99785C2.93124 11.8394 2.86736 11.8129 2.82026 11.7658C2.77316 11.7187 2.7467 11.6548 2.7467 11.5882V10.3325C2.7467 10.2659 2.77316 10.2021 2.82026 10.155C2.86736 10.1079 2.93124 10.0814 2.99785 10.0814H4.25352C4.32013 10.0814 4.38401 10.1079 4.4311 10.155C4.4782 10.2021 4.50466 10.2659 4.50466 10.3325V11.5882C4.50466 11.6548 4.4782 11.7187 4.4311 11.7658C4.38401 11.8129 4.32013 11.8394 4.25352 11.8394Z" stroke="white" stroke-width="0.8" stroke-miterlimit="10" stroke-linecap="round" stroke-linejoin="round"/>
<path d="M7.83689 11.8394H6.58122C6.51461 11.8394 6.45073 11.8129 6.40364 11.7658C6.35654 11.7187 6.33008 11.6548 6.33008 11.5882V10.3325C6.33008 10.2659 6.35654 10.2021 6.40364 10.155C6.45073 10.1079 6.51461 10.0814 6.58122 10.0814H7.83689C7.9035 10.0814 7.96738 10.1079 8.01448 10.155C8.06158 10.2021 8.08804 10.2659 8.08804 10.3325V11.5882C8.08804 11.6548 8.06158 11.7187 8.01448 11.7658C7.96738 11.8129 7.9035 11.8394 7.83689 11.8394Z" stroke="white" stroke-width="0.8" stroke-miterlimit="10" stroke-linecap="round" stroke-linejoin="round"/>
<path d="M11.4201 11.8394H10.1645C10.0979 11.8394 10.034 11.8129 9.98689 11.7658C9.93979 11.7187 9.91333 11.6548 9.91333 11.5882V10.3325C9.91333 10.2659 9.93979 10.2021 9.98689 10.155C10.034 10.1079 10.0979 10.0814 10.1645 10.0814H11.4201C11.4868 10.0814 11.5506 10.1079 11.5977 10.155C11.6448 10.2021 11.6713 10.2659 11.6713 10.3325V11.5882C11.6713 11.6548 11.6448 11.7187 11.5977 11.7658C11.5506 11.8129 11.4868 11.8394 11.4201 11.8394Z" stroke="white" stroke-width="0.8" stroke-miterlimit="10" stroke-linecap="round" stroke-linejoin="round"/>
<path d="M15.0034 11.917H13.7477C13.6811 11.917 13.6172 11.8905 13.5701 11.8434C13.523 11.7963 13.4966 11.7325 13.4966 11.6659V10.4102C13.4966 10.3436 13.523 10.2797 13.5701 10.2326C13.6172 10.1855 13.6811 10.159 13.7477 10.159H15.0034C15.07 10.159 15.1339 10.1855 15.181 10.2326C15.2281 10.2797 15.2545 10.3436 15.2545 10.4102V11.6659C15.2545 11.7325 15.2281 11.7963 15.181 11.8434C15.1339 11.8905 15.07 11.917 15.0034 11.917Z" stroke="white" stroke-width="0.8" stroke-miterlimit="10" stroke-linecap="round" stroke-linejoin="round"/>
<path d="M4.25352 15.1011H2.99785C2.93124 15.1011 2.86736 15.0746 2.82026 15.0275C2.77316 14.9804 2.7467 14.9165 2.7467 14.8499V13.5943C2.7467 13.5277 2.77316 13.4638 2.82026 13.4167C2.86736 13.3696 2.93124 13.3431 2.99785 13.3431H4.25352C4.32013 13.3431 4.38401 13.3696 4.4311 13.4167C4.4782 13.4638 4.50466 13.5277 4.50466 13.5943V14.8499C4.50466 14.9165 4.4782 14.9804 4.4311 15.0275C4.38401 15.0746 4.32013 15.1011 4.25352 15.1011Z" stroke="white" stroke-width="0.8" stroke-miterlimit="10" stroke-linecap="round" stroke-linejoin="round"/>
<path d="M7.83689 15.1011H6.58122C6.51461 15.1011 6.45073 15.0746 6.40364 15.0275C6.35654 14.9804 6.33008 14.9165 6.33008 14.8499V13.5943C6.33008 13.5277 6.35654 13.4638 6.40364 13.4167C6.45073 13.3696 6.51461 13.3431 6.58122 13.3431H7.83689C7.9035 13.3431 7.96738 13.3696 8.01448 13.4167C8.06158 13.4638 8.08804 13.5277 8.08804 13.5943V14.8499C8.08804 14.9165 8.06158 14.9804 8.01448 15.0275C7.96738 15.0746 7.9035 15.1011 7.83689 15.1011Z" stroke="white" stroke-width="0.8" stroke-miterlimit="10" stroke-linecap="round" stroke-linejoin="round"/>
<path d="M9.91333 13.9564V13.5943C9.91333 13.5613 9.91982 13.5286 9.93244 13.4981C9.94506 13.4677 9.96356 13.44 9.98688 13.4167C10.0102 13.3933 10.0379 13.3748 10.0684 13.3622C10.0988 13.3496 10.1315 13.3431 10.1645 13.3431H11.4201C11.4531 13.3431 11.4858 13.3496 11.5163 13.3622C11.5467 13.3748 11.5744 13.3933 11.5977 13.4167C11.6211 13.44 11.6396 13.4677 11.6522 13.4981C11.6648 13.5286 11.6713 13.5613 11.6713 13.5943V14.8499C11.6713 14.8829 11.6648 14.9156 11.6522 14.946C11.6396 14.9765 11.6211 15.0042 11.5977 15.0275C11.5744 15.0508 11.5467 15.0693 11.5163 15.082C11.4858 15.0946 11.4531 15.1011 11.4201 15.1011H10.1645C10.0979 15.1011 10.034 15.0746 9.98689 15.0275C9.93979 14.9804 9.91333 14.9165 9.91333 14.8499" stroke="white" stroke-width="0.8" stroke-miterlimit="10" stroke-linecap="round" stroke-linejoin="round"/>
</g>
</svg>
